<svg viewBox="0 0 200 200" xmlns="http://www.w3.org/2000/svg">
  <!-- Background circle -->
  <circle cx="100" cy="100" r="95" fill="none" stroke="#FDCB6E" stroke-width="2"/>
  
  <!-- Outer decorative circle -->
  <circle cx="100" cy="100" r="85" fill="none" stroke="#FDCB6E" stroke-width="1" opacity="0.5"/>
  
  <!-- Building/Temple silhouette -->
  <g>
    <!-- Main structure -->
    <rect x="60" y="80" width="80" height="70" fill="none" stroke="white" stroke-width="2"/>
    
    <!-- Dome/Top -->
    <path d="M 70 80 Q 100 40 130 80" fill="none" stroke="white" stroke-width="2.5"/>
    
    <!-- Central spire -->
    <line x1="100" y1="40" x2="100" y2="20" stroke="white" stroke-width="2"/>
    <circle cx="100" cy="18" r="3" fill="#FDCB6E"/>
    
    <!-- Windows -->
    <rect x="75" y="95" width="12" height="12" fill="none" stroke="white" stroke-width="1.5"/>
    <rect x="95" y="95" width="12" height="12" fill="none" stroke="white" stroke-width="1.5"/>
    <rect x="113" y="95" width="12" height="12" fill="none" stroke="white" stroke-width="1.5"/>
    
    <rect x="75" y="120" width="12" height="12" fill="none" stroke="white" stroke-width="1.5"/>
    <rect x="95" y="120" width="12" height="12" fill="none" stroke="white" stroke-width="1.5"/>
    <rect x="113" y="120" width="12" height="12" fill="none" stroke="white" stroke-width="1.5"/>
    
    <!-- Door -->
    <rect x="94" y="135" width="12" height="15" fill="none" stroke="white" stroke-width="1.5"/>
    <circle cx="104" cy="142.5" r="1.5" fill="white"/>
    
    <!-- Base/Foundation -->
    <line x1="55" y1="150" x2="145" y2="150" stroke="white" stroke-width="2"/>
    <line x1="58" y1="150" x2="142" y2="155" stroke="#FDCB6E" stroke-width="1.5" opacity="0.7"/>
  </g>
  
  <!-- Decorative stars -->
  <circle cx="50" cy="60" r="2" fill="#FDCB6E" opacity="0.8"/>
  <circle cx="150" cy="70" r="2" fill="#FDCB6E" opacity="0.8"/>
  <circle cx="55" cy="160" r="1.5" fill="#FDCB6E" opacity="0.6"/>
  <circle cx="145" cy="165" r="1.5" fill="#FDCB6E" opacity="0.6"/>
</svg>
